<?xml version="1.0" standalone="no"?>
<!DOCTYPE svg PUBLIC "-//W3C//DTD SVG 20010904//EN"
 "http://www.w3.org/TR/2001/REC-SVG-20010904/DTD/svg10.dtd">
<svg version="1.0" xmlns="http://www.w3.org/2000/svg"
 width="298.000000pt" height="135.000000pt" viewBox="0 0 298.000000 135.000000"
 preserveAspectRatio="xMidYMid meet">

<g transform="translate(0.000000,135.000000) scale(0.100000,-0.100000)"
fill="#000000" stroke="none">
<path d="M534 1228 l-51 -72 16 -38 16 -38 121 0 122 0 -8 35 c-13 59 -59 125
-108 156 -25 16 -48 29 -51 29 -4 0 -29 -33 -57 -72z"/>
<path d="M1350 1184 c-44 -44 -49 -52 -25 -40 17 9 45 16 63 16 31 0 32 2 32
40 0 22 -4 40 -8 40 -4 0 -32 -25 -62 -56z"/>
<path d="M2961 1154 c0 -11 3 -14 6 -6 3 7 2 16 -1 19 -3 4 -6 -2 -5 -13z"/>
<path d="M2962 1085 c0 -16 2 -22 5 -12 2 9 2 23 0 30 -3 6 -5 -1 -5 -18z"/>
<path d="M2961 1030 c-2 -8 -5 -24 -7 -35 -1 -11 -5 -30 -8 -42 -3 -13 -8 -31
-10 -40 -12 -51 -42 -126 -77 -191 l-39 -73 28 -10 c15 -5 46 -17 70 -26 23
-9 45 -14 47 -11 3 3 4 104 2 224 -1 120 -4 212 -6 204z"/>
<path d="M51 981 c16 -45 77 -101 143 -131 71 -33 116 -47 101 -33 -18 18
-245 193 -249 193 -3 0 0 -13 5 -29z"/>
<path d="M530 941 c0 -20 4 -41 10 -47 5 -5 16 -37 25 -71 17 -67 11 -118 -19
-158 -19 -25 -22 -165 -4 -165 6 0 9 -3 6 -6 -3 -3 -35 8 -71 25 -113 51 -201
121 -213 169 -6 21 -10 22 -130 22 -138 0 -134 3 -108 -73 47 -137 211 -219
413 -204 89 6 173 26 165 38 -3 5 1 6 9 3 7 -2 36 10 62 28 70 47 105 117 105
210 0 94 -26 142 -111 206 -9 7 -44 23 -78 37 l-61 24 0 -38z"/>
<path d="M1025 948 c4 -18 16 -59 26 -92 11 -32 19 -62 19 -66 0 -4 -18 -19
-40 -34 -22 -14 -40 -32 -40 -39 0 -29 62 -139 100 -177 150 -150 490 -141
629 16 35 40 81 134 81 164 0 6 -52 10 -127 10 l-128 0 -17 -40 c-23 -56 -69
-82 -135 -77 -68 5 -100 27 -131 95 -22 48 -27 75 -30 165 l-4 107 -105 0
-105 0 7 -32z"/>
<path d="M1991 768 l-1 -177 63 21 c34 12 64 22 66 24 2 2 -10 25 -26 51 -38
64 -62 118 -84 195 l-18 63 0 -177z"/>
<path d="M913 135 c0 -44 2 -61 4 -37 2 23 2 59 0 80 -2 20 -4 1 -4 -43z"/>
<path d="M1445 183 c-4 -13 -12 -23 -19 -23 -8 0 -8 -2 1 -8 6 -4 13 -25 15
-47 2 -31 7 -40 23 -42 11 -2 14 0 8 3 -21 9 -16 82 5 87 15 4 15 5 0 6 -9 0
-19 11 -21 24 l-4 22 -8 -22z"/>
<path d="M316 157 c-25 -19 -17 -37 23 -51 18 -6 34 -15 34 -21 3 -16 -42 -18
-60 -3 -14 11 -15 11 -11 -2 3 -10 18 -15 44 -15 30 0 40 4 42 19 5 22 -13 36
-45 36 -14 0 -23 6 -23 15 0 18 46 21 53 3 2 -7 8 -10 12 -5 22 20 -44 42 -69
24z"/>
<path d="M612 154 c-24 -17 -30 -62 -10 -82 15 -15 61 -15 76 0 20 20 14 65
-10 82 -12 9 -25 16 -28 16 -3 0 -16 -7 -28 -16z m62 -26 c8 -13 8 -23 0 -35
-16 -26 -51 -28 -64 -4 -25 47 36 83 64 39z"/>
<path d="M1932 154 c-24 -17 -30 -62 -10 -82 15 -15 61 -15 76 0 20 20 14 65
-10 82 -12 9 -25 16 -28 16 -3 0 -16 -7 -28 -16z m62 -26 c8 -13 8 -23 0 -35
-16 -26 -51 -28 -64 -4 -25 47 36 83 64 39z"/>
<path d="M2260 161 c-8 -6 -18 -7 -22 -5 -4 3 -7 -19 -6 -48 1 -42 2 -45 5
-16 8 72 63 79 63 8 0 -22 5 -40 10 -40 16 0 12 77 -6 94 -18 18 -24 19 -44 7z"/>
<path d="M2536 157 c-25 -19 -17 -37 23 -51 18 -6 34 -15 34 -21 3 -16 -42
-18 -60 -3 -14 11 -15 11 -11 -2 3 -10 18 -15 44 -15 30 0 40 4 42 19 5 22
-13 36 -45 36 -14 0 -23 6 -23 15 0 18 46 21 53 3 2 -7 8 -10 12 -5 22 20 -44
42 -69 24z"/>
<path d="M1144 115 l1 -50 43 -1 42 -2 0 49 c0 60 -18 65 -22 7 -3 -38 -6 -43
-28 -43 -22 0 -26 5 -31 45 l-7 45 2 -50z"/>
<path d="M1693 110 c0 -30 2 -43 4 -28 2 16 2 40 0 55 -2 16 -4 3 -4 -27z"/>
</g>
</svg>
